<svg xmlns="http://www.w3.org/2000/svg" viewBox="0 0 32 32"><defs><style>.cls-1{fill:#2c2e37;}.cls-2{fill:#464f5e;}.cls-3{fill:#f1f1f1;}.cls-4{fill:#fff;}.cls-5{fill:#ff6060;}</style></defs><g id="Camera"><g id="_Group_" data-name="&lt;Group&gt;"><path class="cls-1" d="M22.07,11.53H14.71L16,9.63a.73.73,0,0,1,.64-.34h3.59a.72.72,0,0,1,.63.34Z"/><path class="cls-2" d="M12.26,11.12H10v-.67a.44.44,0,0,1,.45-.45h1.35a.43.43,0,0,1,.44.45Z"/><path class="cls-2" d="M23.47,12.25v9A1.5,1.5,0,0,1,22,22.71H10a1.5,1.5,0,0,1-1.49-1.5v-9A1.5,1.5,0,0,1,10,10.75H22A1.5,1.5,0,0,1,23.47,12.25Z"/><path class="cls-3" d="M23.47,12.25v.49H8.53v-.49A1.5,1.5,0,0,1,10,10.75H22A1.5,1.5,0,0,1,23.47,12.25Z"/><circle class="cls-4" cx="16" cy="16.73" r="4.48"/><circle class="cls-1" cx="16" cy="16.73" r="3.36"/><path class="cls-2" d="M17.87,15.61a2.36,2.36,0,0,0-3.59,0,.47.47,0,1,0,.71.63,1.48,1.48,0,0,1,2.17,0,.48.48,0,0,0,.37.15.65.65,0,0,0,.34-.11A.51.51,0,0,0,17.87,15.61Z"/><circle class="cls-5" cx="11.14" cy="12.06" r="0.68"/></g></g></svg>